<svg id="Layer_5" enable-background="new 0 0 64 64" height="512" viewBox="0 0 64 64" width="512" xmlns="http://www.w3.org/2000/svg"><g><g><g><path d="m20 48.54c-.91.53-1.59 1.42-1.86 2.47-.05 0-.09-.01-.14-.01-.73 0-1.41.2-2 .55v-11.55h4z" fill="#d3a06c"/></g><g><path d="m54 40h4v18h-4z" fill="#d3a06c"/></g><g><path d="m58 58v4h-14v-4h4 6z" fill="#b27946"/></g><g><path d="m30 36v4h-10-4v-4z" fill="#b27946"/></g><g><path d="m58 36v4h-4-6-12v-4h12 6z" fill="#b27946"/></g><g><path d="m48 40h6v18h-6z" fill="#aab2bd"/></g><g><path d="m48 24h6v12h-6z" fill="#aab2bd"/></g><g><path d="m52 20h3.75l.02.01-1.77 3.99h-6l-1.77-3.99.02-.01h3.75z" fill="#fcd770"/></g><g><path d="m52 20h-2-3.75l-.02.01-6.23-14.01s3-4 11-4 11 4 11 4l-6.23 14.01-.02-.01z" fill="#cf9e76"/></g><g><path d="m36 40v8h-6v-8-4-26h6v26z" fill="#aab2bd"/></g><g><path d="m33 2c2.21 0 4 1.79 4 4v.35c0 .43-.07.86-.21 1.27l-.79 2.38h-6l-.79-2.38c-.14-.41-.21-.84-.21-1.27v-.35c0-1.1.45-2.1 1.17-2.83.73-.72 1.73-1.17 2.83-1.17z" fill="#969faa"/></g><g><path d="m44 58v4h-18l.15-.54c.73-2.56 1.98-4.86 3.62-6.81 3.44-4.12 8.6-6.65 14.23-6.65z" fill="#ccd1d9"/></g><g><path d="m36 48h8c-5.63 0-10.79 2.53-14.23 6.65-.56-1.55-2.04-2.65-3.77-2.65 0-2.21-1.79-4-4-4h8z" fill="#e6e9ed"/></g><g><path d="m16 51.55c.59-.35 1.27-.55 2-.55.05 0 .09.01.14.01.27-1.05.95-1.94 1.86-2.47.59-.34 1.27-.54 2-.54 2.21 0 4 1.79 4 4 1.73 0 3.21 1.1 3.77 2.65-1.64 1.95-2.89 4.25-3.62 6.81l-.15.54h-24c0-1.5.83-2.79 2.05-3.47-.02-.18-.05-.35-.05-.53 0-2.21 1.79-4 4-4 0-2.21 1.79-4 4-4 1.46 0 2.73.79 3.42 1.96.18-.15.37-.29.58-.41z" fill="#b4dd7f"/></g></g><g><circle cx="33" cy="6" r="1"/><path d="m11 57h2c0-.552.449-1 1-1v-2c-1.654 0-3 1.346-3 3z"/><path d="m21 58v2c1.654 0 3-1.346 3-3h-2c0 .552-.449 1-1 1z"/><path d="m21 51v2c.551 0 1 .448 1 1h2c0-1.654-1.346-3-3-3z"/><path d="m55 24.212 8.152-18.342-.352-.47c-.135-.18-3.397-4.4-11.8-4.4s-11.665 4.22-11.8 4.4l-.353.47 8.153 18.342v10.788h-10v-24.838l.744-2.23c.17-.511.256-1.043.256-1.581v-.351c0-2.757-2.243-5-5-5s-5 2.243-5 5v.351c0 .538.086 1.07.256 1.581l.744 2.23v24.838h-14v15.023c-.851-.65-1.888-1.023-3-1.023-2.444 0-4.484 1.763-4.916 4.084-2.321.432-4.084 2.472-4.084 4.916v.021c-1.248.939-2 2.41-2 3.979v1h43 1 14v-28h-4zm-6.35-1.212-.889-2h6.478l-.889 2zm2.35-20c5.907 0 8.844 2.243 9.821 3.19l-5.693 12.81h-1.802l3.636-12.725-1.923-.55-3.793 13.275h-.491l-3.794-13.275-1.923.55 3.636 12.725h-1.802l-5.693-12.809c.982-.952 3.919-3.191 9.821-3.191zm-2 22h4v10h-4zm8 16v16h-2v-16zm-4 16h-4v-16h4zm-6 0h-2v-10h-8v-6h10zm-17.036-4.032c-.747-.973-1.829-1.655-3.048-1.883-.143-.771-.464-1.481-.918-2.085h9.458c-2.044 1-3.908 2.338-5.492 3.968zm-12.549-2.932c-.141.017-.276.062-.415.091v-9.127h2v7.022c-.682.518-1.238 1.201-1.585 2.014zm3.585-9.036h8v6h-7c-.343 0-.674.047-1 .114zm14-30v36h-4v-36zm-5-5c0-1.654 1.346-3 3-3s3 1.346 3 3v.351c0 .323-.052.642-.154.948l-.567 1.701h-4.559l-.567-1.7c-.101-.307-.153-.626-.153-.949zm-1 31v2h-12v-2zm-24.458 22.398.584-.426-.096-.677c-.013-.097-.03-.194-.03-.295 0-1.654 1.346-3 3-3h1v-1c0-1.654 1.346-3 3-3 1.056 0 2.016.552 2.566 1.475l.604 1.016.901-.765c.39-.331 1.042-.726 1.863-.729l.971.05.201-.786c.34-1.331 1.53-2.261 2.894-2.261 1.654 0 3 1.346 3 3v1h1c1.092 0 2.086.598 2.611 1.527-1.49 1.895-2.646 4.076-3.357 6.473h-22.077c.242-.666.721-1.24 1.365-1.602zm22.817 1.602c2.271-6.783 8.513-11.547 15.641-11.958v11.958zm17.641 0v-2h12v2zm12-22h-20v-2h20z"/><path d="m50 5h2v7h-2z"/></g></g></svg>