<svg height="502.624pt" viewBox="0 0 502.624 502.624" width="502.624pt" xmlns="http://www.w3.org/2000/svg"><path d="m355.3125 251.3125 136 136-104 104-136-136zm0 0" fill="#69d6f4"/><path d="m115.3125 219.3125-104-104 104-104 136 136-104 104zm0 0" fill="#69d6f4"/><path d="m387.3125 11.3125-376 376 104 104 376-376zm0 0" fill="#e6e9ed"/><path d="m435.3125 171.3125-292 292-60-60 320-320 60 60zm0 0" fill="#fcd770"/><path d="m502.625 115.3125-115.3125-115.3125-136 136-136-136-115.3125 115.3125 136 136-136 136 115.3125 115.3125 136-136 136 136 115.3125-115.3125-136-136zm-163.3125 140.6875-34.34375-34.34375-11.3125 11.3125 34.34375 34.34375-12.6875 12.6875-18.34375-18.34375-11.3125 11.3125 18.34375 18.34375-12.6875 12.6875-34.34375-34.34375-11.3125 11.3125 34.34375 34.34375-12.6875 12.6875-18.34375-18.34375-11.3125 11.3125 18.34375 18.34375-12.6875 12.6875-34.34375-34.34375-11.3125 11.3125 34.34375 34.34375-12.6875 12.6875-18.34375-18.34375-11.3125 11.3125 18.34375 18.34375-12.6875 12.6875-34.34375-34.34375-11.3125 11.3125 34.34375 34.34375-12.6875 12.6875-18.34375-18.34375-11.3125 11.3125 18.34375 18.34375-16.6875 16.6875-48.6875-48.6875 308.6875-308.6875 48.6875 48.6875-16.6875 16.6875-34.34375-34.34375-11.3125 11.3125 34.34375 34.34375-12.6875 12.6875-18.34375-18.34375-11.3125 11.3125 18.34375 18.34375-12.6875 12.6875-34.34375-34.34375-11.3125 11.3125 34.34375 34.34375-12.6875 12.6875-18.34375-18.34375-11.3125 11.3125 18.34375 18.34375zm-212.6875-36.6875 18.34375-18.34375-11.3125-11.3125-18.34375 18.34375-12.6875-12.6875 34.34375-34.34375-11.3125-11.3125-34.34375 34.34375-12.6875-12.6875 18.34375-18.34375-11.3125-11.3125-18.34375 18.34375-44.6875-44.6875 92.6875-92.6875 124.6875 124.6875-92.6875 92.6875zm-104 168 364.6875-364.6875 92.6875 92.6875-16.6875 16.6875-60-60-331.3125 331.3125 60 60-16.6875 16.6875zm457.375 0-92.6875 92.6875-44.6875-44.6875 34.34375-34.34375-11.3125-11.3125-34.34375 34.34375-12.6875-12.6875 18.34375-18.34375-11.3125-11.3125-18.34375 18.34375-12.6875-12.6875 34.34375-34.34375-11.3125-11.3125-34.34375 34.34375-20.6875-20.6875 92.6875-92.6875zm0 0"/></svg>