<svg id="Layer_5" enable-background="new 0 0 64 64" height="512" viewBox="0 0 64 64" width="512" xmlns="http://www.w3.org/2000/svg"><g fill="#ecc19c"><path d="m43.59 11-5.19 3c-.53-.91-1.17-1.75-1.91-2.49s-1.58-1.38-2.49-1.91l3-5.19c2.73 1.58 5.01 3.86 6.59 6.59z"/><path d="m10 44h6v6h-6z"/><path d="m10 20h6v8h-6z"/><path d="m28 2v6c-2.19 0-4.24.58-6 1.6l-3-5.19c2.65-1.53 5.72-2.41 9-2.41z"/><path d="m19 4.41 3 5.19c-1.82 1.06-3.34 2.58-4.4 4.4l-5.19-3c.79-1.37 1.75-2.62 2.86-3.73s2.36-2.07 3.73-2.86z"/><path d="m10 36h6v8h-6z"/><path d="m10 28h6v8h-6z"/><path d="m12.41 11 5.19 3c-1.02 1.76-1.6 3.81-1.6 6h-6c0-3.28.88-6.35 2.41-9z"/><path d="m46 20v2h-6v-2c0-2.19-.58-4.24-1.6-6l5.19-3c1.53 2.65 2.41 5.72 2.41 9z"/><path d="m37 4.41-3 5.19c-1.76-1.02-3.81-1.6-6-1.6v-6c3.28 0 6.35.88 9 2.41z"/></g><path d="m19 50v4h-12v-4h3 6z" fill="#ccd1d9"/><path d="m22 54h-3-12-3c-1.1 0-2 .9-2 2v2 4h22v-4-2c0-1.1-.9-2-2-2z" fill="#969faa"/><path d="m29 34v8h-3c-1.1 0-2-.9-2-2v-6c0-1.1.9-2 2-2h3 .25c-.16.64-.25 1.31-.25 2z" fill="#aab2bd"/><path d="m62 34v6c0 1.1-.9 2-2 2h-3v-8c0-.67-.08-1.33-.24-1.95l.24-.05h3c1.1 0 2 .9 2 2z" fill="#aab2bd"/><path d="m54 24v3.76c-1.37-1.1-3.11-1.76-5-1.76h-12c-1.89 0-3.63.66-5 1.76v-3.76c0-1.1.9-2 2-2h6 6 6c1.1 0 2 .9 2 2z" fill="#aab2bd"/><path d="m32 27.76c1.37-1.1 3.11-1.76 5-1.76v8h-8c0-.69.09-1.36.25-2 .44-1.7 1.42-3.18 2.75-4.24z" fill="#e6e9ed"/><path d="m54 27.76c1.34 1.07 2.33 2.57 2.76 4.29.16.62.24 1.28.24 1.95h-8v-8c1.89 0 3.63.66 5 1.76z" fill="#e6e9ed"/><path d="m37 26h12v8h-12z" fill="#69d6f4"/><path d="m57 42v10h-28v-10-8h8 12 8z" fill="#fcd770"/><path d="m57 52v4c0 1.1-.9 2-2 2h-1-6-10-6-1c-1.1 0-2-.9-2-2v-4z" fill="#ccd1d9"/><path d="m38 58v1c0 1.66-1.34 3-3 3-.83 0-1.58-.34-2.12-.88s-.88-1.29-.88-2.12v-1z" fill="#838f9b"/><path d="m54 58v1c0 1.66-1.34 3-3 3-.83 0-1.58-.34-2.12-.88s-.88-1.29-.88-2.12v-1z" fill="#838f9b"/><circle cx="43" cy="44" fill="#ff826e" r="4"/><path d="m43 39c-2.757 0-5 2.243-5 5s2.243 5 5 5 5-2.243 5-5-2.243-5-5-5zm0 8c-1.654 0-3-1.346-3-3s1.346-3 3-3 3 1.346 3 3-1.346 3-3 3z"/><path d="m50 43h3v2h-3z"/><path d="m50 47h3v2h-3z"/><path d="m41 29h4v2h-4z"/><path d="m60 31h-2.525c-.508-1.431-1.367-2.694-2.475-3.689v-3.311c0-1.654-1.346-3-3-3h-5v-1c0-10.477-8.523-19-19-19s-19 8.523-19 19v29h-3v4h-2c-1.654 0-3 1.346-3 3v7h24v-7c0-1.654-1.346-3-3-3h-2v-4h-3v-29c0-6.065 4.935-11 11-11s11 4.935 11 11v1h-5c-1.654 0-3 1.346-3 3v3.311c-1.108.995-1.967 2.258-2.475 3.689h-2.525c-1.654 0-3 1.346-3 3v6c0 1.654 1.346 3 3 3h2v13c0 1.654 1.346 3 3 3 0 2.206 1.794 4 4 4s4-1.794 4-4h8c0 2.206 1.794 4 4 4s4-1.794 4-4c1.654 0 3-1.346 3-3v-13h2c1.654 0 3-1.346 3-3v-6c0-1.654-1.346-3-3-3zm-30 4h26v16h-26zm8-8h10v6h-10zm17.92 6h-5.92v-5.92c3.059.441 5.479 2.861 5.92 5.92zm-28.92-25.949c-1.64.126-3.192.558-4.606 1.238l-2.003-3.469c2.01-1.012 4.244-1.63 6.609-1.769zm2-4c2.365.139 4.599.757 6.609 1.769l-2.003 3.469c-1.414-.68-2.966-1.113-4.606-1.238zm-14 39.949h-4v-6h4zm0-8h-4v-6h4zm0-8h-4v-6h4zm.051-8h-4c.139-2.366.757-4.599 1.769-6.609l3.469 2.003c-.68 1.414-1.113 2.966-1.238 4.606zm-12.051 42v-2h20v2zm20-5v1h-20v-1c0-.552.449-1 1-1h18c.551 0 1 .448 1 1zm-5-3h-10v-2h10zm-7-4v-4h4v4zm6.283-36.343-3.469-2.003c1.271-1.922 2.919-3.57 4.841-4.841l2.002 3.468c-1.321.91-2.466 2.055-3.374 3.376zm18.06-3.375 2.002-3.468c1.922 1.27 3.57 2.919 4.841 4.841l-3.469 2.003c-.908-1.322-2.053-2.467-3.374-3.376zm4.368 5.111 3.469-2.003c1.154 2.293 1.82 4.873 1.82 7.61v1h-4v-1c0-2.009-.472-3.906-1.289-5.607zm-6.711 9.607c0-.552.449-1 1-1h18c.551 0 1 .448 1 1v1.95c-1.207-.603-2.562-.95-4-.95h-12c-1.438 0-2.793.347-4 .95zm3 3.08v5.92h-5.92c.441-3.059 2.861-5.479 5.92-5.92zm-10 13.92c-.551 0-1-.448-1-1v-6c0-.552.449-1 1-1h2.059c-.037.329-.059.662-.059 1v7zm9 20c-1.103 0-2-.897-2-2h4c0 1.103-.897 2-2 2zm16 0c-1.103 0-2-.897-2-2h4c0 1.103-.897 2-2 2zm4-4h-24c-.551 0-1-.448-1-1v-3h26v3c0 .552-.449 1-1 1zm6-17c0 .552-.449 1-1 1h-2v-7c0-.338-.022-.671-.059-1h2.059c.551 0 1 .448 1 1z"/></svg>