<svg height="496pt" viewBox="0 0 496 496" width="496pt" xmlns="http://www.w3.org/2000/svg"><path d="m248 24v32h-32v-40c0-4.398438 3.601562-8 8-8h16c4.398438 0 8 3.601562 8 8zm0 0" fill="#f0d0b4"/><path d="m168 24v32h-32v-40c0-4.398438 3.601562-8 8-8h16c4.398438 0 8 3.601562 8 8zm0 0" fill="#f0d0b4"/><path d="m88 24v32h-32v-40c0-4.398438 3.601562-8 8-8h16c4.398438 0 8 3.601562 8 8zm0 0" fill="#f0d0b4"/><g fill="#b27946"><path d="m56 24v32h-40c-4.398438 0-8-3.601562-8-8v-16c0-4.398438 3.601562-8 8-8zm0 0"/><path d="m136 24v32h-48v-32zm0 0"/><path d="m216 24v32h-48v-32zm0 0"/><path d="m488 400v16c0 4.398438-3.601562 8-8 8h-200v-32h200c4.398438 0 8 3.601562 8 8zm0 0"/></g><path d="m472 424v48c0 8.800781-7.199219 16-16 16h-176v-64zm0 0" fill="#dfb28b"/><path d="m488 32v16c0 4.398438-3.601562 8-8 8h-232v-32h232c4.398438 0 8 3.601562 8 8zm0 0" fill="#b27946"/><path d="m440 56h32v336h-32zm0 0" fill="#dfb28b"/><path d="m440 56v336h-160v-336zm0 0" fill="#e6e9ed"/><path d="m56.238281 470.160156c-.078125.640625-.160156 1.199219-.160156 1.839844h-.078125v-48h48c8.800781 0 16 7.199219 16 16 0 4.398438-1.761719 8.398438-4.71875 11.28125-2.882812 2.957031-6.882812 4.71875-11.28125 4.71875h-31.761719c-7.839843 0-15.039062 6.398438-16 14.160156zm0 0" fill="#e6e9ed"/><path d="m248 56h-128v384c0 4.398438-1.761719 8.398438-4.71875 11.28125-2.882812 2.957031-6.882812 4.71875-11.28125 4.71875h-31.761719c-7.839843 0-15.039062 6.398438-16 14.160156-.078125.640625-.160156 1.199219-.160156 1.839844v.320312c0 8.800782 6.722656 15.679688 15.921875 15.679688h208v-432zm0 0" fill="#fcd770"/><path d="m120 174.320312v265.679688c0-8.800781-7.199219-16-16-16h-80v-33.679688c5.199219 2.078126 11.199219 2.320313 16.878906.238282 8.882813-3.277344 14.640625-11.359375 15.679688-20.238282 8.882812.558594 17.679687-3.839843 22.402344-12.082031 4.800781-8.316406 4.078124-18.160156-.800782-25.679687 7.121094-5.359375 11.121094-14.398438 9.441406-23.839844-1.601562-9.4375-8.402343-16.558594-16.960937-19.117188 2.078125-8.722656-.640625-18.242187-7.921875-24.402343-7.199219-6.160157-16.957031-7.199219-25.117188-3.597657-2.800781-5.679687-7.679687-10.082031-13.601562-12.242187v-193.359375h96zm0 0" fill="#fcd770"/><path d="m280 425.199219v62.800781h-25.359375v-.078125c.878906-2.480469 1.359375-5.121094 1.359375-7.921875 0-13.28125-10.71875-24-24-24s-24 10.71875-24 24c0 2.800781.480469 5.519531 1.359375 8h-44.238281v-.078125c-4.082032-5.28125-6-12.160156-4.722656-19.203125 1.601562-9.4375 8.402343-16.558594 16.960937-19.117188-2.078125-8.722656.640625-18.242187 7.921875-24.402343 7.199219-6.160157 16.957031-7.199219 25.117188-3.597657 4-8.082031 12.160156-13.601562 21.601562-13.601562s17.601562 5.519531 21.601562 13.601562c8.160157-3.601562 17.917969-2.5625 25.117188 3.597657zm0 0" fill="#ff826e"/><path d="m24 390.320312v-140.960937c5.921875 2.160156 10.800781 6.5625 13.601562 12.242187 8.160157-3.601562 17.917969-2.5625 25.117188 3.597657 7.28125 6.160156 10 15.679687 7.921875 24.402343 8.558594 2.558594 15.359375 9.679688 16.960937 19.117188 1.679688 9.441406-2.320312 18.480469-9.441406 23.839844 4.878906 7.519531 5.601563 17.363281.800782 25.679687-4.722657 8.242188-13.519532 12.640625-22.402344 12.082031-1.039063 8.878907-6.796875 16.960938-15.679688 20.238282-5.679687 2.082031-11.679687 1.839844-16.878906-.238282zm0 0" fill="#ff826e"/><path d="m180.320312 56c2.960938 5.359375 3.757813 11.679688 2.320313 17.601562 8.558594 2.558594 15.359375 9.679688 16.960937 19.117188 1.679688 9.441406-2.320312 18.480469-9.441406 23.839844 4.878906 7.519531 5.601563 17.363281.800782 25.679687-4.722657 8.242188-13.519532 12.640625-22.402344 12.082031-1.039063 8.878907-6.796875 16.960938-15.679688 20.238282-8.878906 3.28125-18.398437.882812-24.878906-5.277344-2.320312 2.160156-5.039062 3.917969-8 5.039062v-47.761718c2.480469.960937 5.199219 1.441406 8 1.441406 13.28125 0 24-10.71875 24-24s-10.71875-24-24-24c-2.800781 0-5.519531.480469-8 1.359375v-25.359375zm0 0" fill="#ff826e"/><path d="m280 270.640625v47.679687c-2.960938-1.121093-5.679688-2.878906-8-5.039062-6.480469 6.160156-16 8.558594-24.878906 5.277344-8.882813-3.277344-14.640625-11.359375-15.679688-20.238282-8.882812.558594-17.679687-3.839843-22.402344-12.082031-4.800781-8.316406-4.078124-18.160156.800782-25.679687-7.121094-5.359375-11.121094-14.398438-9.441406-23.839844 1.601562-9.4375 8.402343-16.558594 16.960937-19.117188-2.078125-8.722656.640625-18.242187 7.921875-24.402343 7.199219-6.160157 16.957031-7.199219 25.117188-3.597657 4-8.082031 12.160156-13.601562 21.601562-13.601562 2.800781 0 5.519531.480469 8 1.359375v48c-2.480469-.878906-5.199219-1.359375-8-1.359375-13.28125 0-24 10.71875-24 24s10.71875 24 24 24c2.800781 0 5.519531-.480469 8-1.359375zm0 0" fill="#ff826e"/><path d="m256 480c0 2.800781-.480469 5.441406-1.359375 7.921875v.078125h-45.28125c-.878906-2.480469-1.359375-5.199219-1.359375-8 0-13.28125 10.71875-24 24-24s24 10.71875 24 24zm0 0" fill="#ffc729"/><path d="m128 80c13.28125 0 24 10.71875 24 24s-10.71875 24-24 24c-2.800781 0-5.519531-.480469-8-1.441406v-45.199219c2.480469-.878906 5.199219-1.359375 8-1.359375zm0 0" fill="#ffc729"/><path d="m280 225.359375v45.28125c-2.480469.878906-5.199219 1.359375-8 1.359375-13.28125 0-24-10.71875-24-24s10.71875-24 24-24c2.800781 0 5.519531.480469 8 1.359375zm0 0" fill="#ffc729"/><path d="m496 48v-16c0-8.824219-7.175781-16-16-16h-224c0-8.824219-7.175781-16-16-16h-16c-8.824219 0-16 7.175781-16 16h-32c0-8.824219-7.175781-16-16-16h-16c-8.824219 0-16 7.175781-16 16h-32c0-8.824219-7.175781-16-16-16h-16c-8.824219 0-16 7.175781-16 16h-32c-8.824219 0-16 7.175781-16 16v16c0 8.824219 7.175781 16 16 16v368h32v40h.230469c-.054688 5.960938 1.875 11.695312 5.730469 16.054688 4.464843 5.050781 11.039062 7.945312 18.039062 7.945312h384c13.230469 0 24-10.769531 24-24v-40c8.824219 0 16-7.175781 16-16v-16c0-8.824219-7.175781-16-16-16v-320c8.824219 0 16-7.175781 16-16zm-16-16v16h-224v-16zm-192 352v-320h144v320zm-73.351562-129.832031c-5.015626-3.777344-7.472657-9.9375-6.402344-16.0625 1.074218-6.121094 5.441406-11.042969 11.410156-12.847657l7.175781-2.179687-1.710937-7.300781c-1.449219-6.167969.582031-12.488282 5.292968-16.480469 4.675782-3.960937 11.105469-4.882813 16.800782-2.402344l6.96875 3.042969 3.382812-6.808594c2.792969-5.609375 8.59375-8.96875 14.433594-9.058594v31.929688c-17.648438 0-32 14.351562-32 32s14.351562 32 32 32v22.207031l-5.511719 5.25c-4.519531 4.304688-10.894531 5.671875-16.601562 3.566407-5.75-2.121094-9.78125-7.335938-10.511719-13.617188l-.871094-7.503906-7.542968.449218c-6.199219.328126-11.945313-2.734374-15-8.09375-3.082032-5.394531-2.855469-12.042968.589843-17.335937l4.074219-6.265625zm57.351562 9.832031c-8.824219 0-16-7.175781-16-16s7.175781-16 16-16zm-32-248v32h-16v-32zm-32 16v16h-32v-16zm-33.128906 39.777344-1.710938 7.300781 7.175782 2.179687c5.96875 1.804688 10.335937 6.726563 11.40625 12.839844 1.074218 6.132813-1.382813 12.285156-6.398438 16.0625l-5.96875 4.488282 4.074219 6.261718c3.445312 5.296875 3.671875 11.945313.589843 17.335938-3.054687 5.355468-8.808593 8.363281-15 8.097656l-7.542968-.449219-.871094 7.503907c-.730469 6.28125-4.761719 11.503906-10.503906 13.617187-5.730469 2.097656-12.089844.738281-16.609375-3.566406l-5.511719-5.25v-22.199219c17.648438 0 32-14.351562 32-32s-14.351562-32-32-32v-8h46.816406c.589844 2.519531.671875 5.167969.054688 7.777344zm-46.871094 16.222656c8.824219 0 16 7.175781 16 16s-7.175781 16-16 16zm32-72v32h-16v-32zm-32 16v16h-32v-16zm-48-16v32h-16v-32zm-64 16h32v16h-32zm52.34375 265.257812c5.96875 1.804688 10.335938 6.726563 11.410156 12.839844 1.070313 6.132813-1.386718 12.285156-6.402344 16.0625l-5.96875 4.488282 4.074219 6.261718c3.445313 5.296875 3.671875 11.945313.589844 17.335938-3.054687 5.355468-8.816406 8.394531-15 8.097656l-7.542969-.449219-.871094 7.503907c-.730468 6.28125-4.761718 11.503906-10.503906 13.617187-2.007812.746094-4.074218 1.03125-6.128906.9375v-115.664063l1.816406 3.648438 6.96875-3.042969c5.671875-2.480469 12.117188-1.558593 16.800782 2.402344 4.710937 4 6.734374 10.3125 5.292968 16.480469l-1.710937 7.300781zm-36.34375 102.671876c.230469.007812.457031.0625.679688.0625 3.703124 0 7.417968-.648438 10.960937-1.953126 9.289063-3.414062 16.304687-10.816406 19.382813-20.046874 9.5625-1.480469 17.984374-7.167969 22.914062-15.808594 4.925781-8.625 5.582031-18.832032 2.054688-27.910156 6.390624-7.3125 9.230468-17.128907 7.519531-26.9375-1.710938-9.800782-7.703125-18.054688-16.183594-22.726563.238281-9.746094-3.839844-19.113281-11.398437-25.519531-7.570313-6.417969-17.410157-8.875-26.898438-6.953125-2.503906-3.152344-5.582031-5.738281-9.03125-7.746094v-180.390625h80v353.472656c-2.511719-.898437-5.183594-1.472656-8-1.472656h-72zm72 32.070312c4.40625 0 8 3.59375 8 8s-3.59375 8-8 8h-31.761719c-2.863281 0-5.636719.558594-8.238281 1.535156v-17.535156zm-38.054688 45.464844c-1.449218-1.640625-2.082031-3.878906-1.777343-6.320313.472656-3.808593 4.238281-7.144531 8.070312-7.144531h31.761719c13.230469 0 24-10.769531 24-24v-260.710938c5.0625 3.101563 10.808594 4.71875 16.648438 4.71875 3.679687 0 7.398437-.648437 11-1.96875 9.289062-3.414062 16.304687-10.816406 19.382812-20.046874 9.5625-1.480469 17.984375-7.167969 22.914062-15.808594 4.925782-8.625 5.582032-18.832032 2.054688-27.910156 6.390625-7.3125 9.230469-17.128907 7.519531-26.9375-1.710937-9.808594-7.703125-18.054688-16.183593-22.734376.023437-1.539062-.070313-3.074218-.246094-4.601562h80.910156v104c-9.886719 0-18.992188 4.519531-25.03125 12.136719-9.511719-1.921875-19.335938.535156-26.898438 6.953125-7.558593 6.40625-11.644531 15.78125-11.398437 25.519531-8.480469 4.671875-14.472656 12.925781-16.183594 22.734375-1.703125 9.808594 1.136719 19.625 7.519531 26.9375-3.527343 9.070312-2.871093 19.285156 2.054688 27.910156 4.929688 8.632813 13.351562 14.328125 22.914062 15.808594 3.078126 9.238281 10.101563 16.632812 19.382813 20.046875 3.59375 1.328125 7.3125 1.96875 10.992187 1.96875 5.832032 0 11.578126-1.617187 16.648438-4.71875v89.503906c-4.832031-1.375-9.929688-1.671875-14.96875-.65625-6.039062-7.625-15.144531-12.144531-25.03125-12.144531s-18.992188 4.519531-25.03125 12.136719c-9.503906-1.929688-19.335938.535156-26.898438 6.953125-7.558593 6.40625-11.644531 15.773437-11.398437 25.519531-8.480469 4.671875-14.472656 12.925781-16.183594 22.734375-.734375 4.230469-.542969 8.527344.375 12.65625h-80.863281c-2.457031 0-4.609375-.902344-6.054688-2.535156zm150.054688 2.535156c0-8.824219 7.175781-16 16-16s16 7.175781 16 16zm48 0c0-17.648438-14.351562-32-32-32s-32 14.351562-32 32h-30.390625c-1.472656-3.054688-1.960937-6.472656-1.363281-9.894531 1.074218-6.121094 5.441406-11.042969 11.410156-12.847657l7.175781-2.179687-1.710937-7.300781c-1.449219-6.167969.582031-12.488282 5.292968-16.480469 4.664063-3.960937 11.097657-4.882813 16.800782-2.402344l6.96875 3.042969 3.382812-6.808594c2.808594-5.632812 8.335938-9.128906 14.433594-9.128906s11.625 3.496094 14.433594 9.128906l3.382812 6.808594 6.96875-3.042969c5.085938-2.222656 10.71875-1.574219 15.214844 1.402344v49.703125zm200-8c0 4.40625-3.59375 8-8 8h-168v-48h176zm16-56h-192v-16h192zm-16-32h-16v-320h16zm0 0"/></svg>