<svg id="Layer_5" enable-background="new 0 0 64 64" height="512" viewBox="0 0 64 64" width="512" xmlns="http://www.w3.org/2000/svg"><path d="m27.17 34h26v4 2.82c0 .39 0 .79-.02 1.18-.08 3.32-.51 6.61-1.28 9.83-.31 1.29-.67 2.56-1.08 3.82-.72 2.17-1.6 4.29-2.62 6.35h-16c-1.64-3.29-2.9-6.75-3.73-10.3-.84-3.56-1.27-7.2-1.27-10.88z" fill="#fcd770"/><path d="m53.17 40.82v-2.82c4.97 0 9 4.03 9 9s-4.03 9-9 9c-.69 0-1.36-.08-2-.22l-.38-.13c.41-1.26.77-2.53 1.08-3.82l.3.07c.32.07.66.1 1 .1 2.76 0 5-2.24 5-5s-2.24-5-5-5h-.02c.02-.39.02-.79.02-1.18z" fill="#fcd770"/><g fill="#69d6f4"><path d="m20.3 32.04c.39-.35.85-.63 1.36-.8 6-1.96 10.34-7.59 10.34-14.24v-15h-30v15c0 6.65 4.34 12.28 10.34 14.24.51.17.97.45 1.36.8.82.75 1.3 1.85 1.3 3v22.96h-5c-2.21 0-4 1.79-4 4h22c0-1.1-2.28-2.1-3-2.83-.73-.72.1-1.17-1-1.17h-5v-22.96c0-1.15.48-2.25 1.3-3z"/><path d="m43.46 6.54c.91.9 2.16 1.46 3.54 1.46-1.38 0-2.63.56-3.54 1.46-.9.91-1.46 2.16-1.46 3.54 0-2.76-2.24-5-5-5 1.38 0 2.63-.56 3.54-1.46.9-.91 1.46-2.16 1.46-3.54 0 1.38.56 2.63 1.46 3.54z"/><path d="m59.46 24.54c.91.9 2.16 1.46 3.54 1.46-1.38 0-2.63.56-3.54 1.46-.9.91-1.46 2.16-1.46 3.54 0-2.76-2.24-5-5-5 1.38 0 2.63-.56 3.54-1.46.9-.91 1.46-2.16 1.46-3.54 0 1.38.56 2.63 1.46 3.54z"/></g><path d="m30.17 37h2v2h-2z"/><path d="m30.17 41.004c.018 4.139.62 8.27 1.792 12.277l1.92-.561c-1.119-3.829-1.695-7.773-1.711-11.725z"/><path d="m54.17 37.051v-4.051h-28v7.819c0 7.469 1.766 14.947 5.105 21.628l.277.553h17.236l.276-.553c.908-1.817 1.689-3.696 2.361-5.615.576.102 1.159.168 1.745.168 5.514 0 10-4.486 10-10 0-5.176-3.954-9.446-9-9.949zm-.068 6.07c1.755.423 3.068 1.995 3.068 3.879 0 2.206-1.794 4-4 4-.036 0-.071-.01-.107-.011.558-2.59.911-5.223 1.039-7.868zm-6.555 17.879h-14.755c-3.026-6.263-4.623-13.226-4.623-20.181v-5.819h24v5.819c.001 6.955-1.596 13.918-4.622 20.181zm5.623-6c-.373 0-.745-.035-1.113-.086.195-.643.366-1.292.535-1.942.192.018.385.028.578.028 3.309 0 6-2.691 6-6 0-2.97-2.171-5.436-5.008-5.911 0-.09.008-.18.008-.27v-1.75c3.94.495 7 3.859 7 7.931 0 4.411-3.589 8-8 8z"/><path d="m24 57h-4v-21.963c0-1.294.812-2.463 1.976-2.843 6.594-2.154 11.024-8.26 11.024-15.194v-16h-32v16c0 6.934 4.43 13.04 11.024 15.194 1.164.38 1.976 1.549 1.976 2.843v21.963h-4c-2.757 0-5 2.243-5 5v1h24v-1c0-2.757-2.243-5-5-5zm-16.829 4c.413-1.164 1.525-2 2.829-2h6v-23.963c0-2.182-1.348-4.088-3.354-4.744-5.77-1.885-9.646-7.227-9.646-13.293v-14h28v14c0 6.066-3.876 11.408-9.646 13.293-2.006.656-3.354 2.562-3.354 4.744v23.963h6c1.304 0 2.416.836 2.829 2z"/><path d="m29 17v-8h-2v8c0 2.568-.968 5.005-2.726 6.862l1.452 1.375c2.111-2.23 3.274-5.155 3.274-8.237z"/><path d="m27 5h2v2h-2z"/><path d="m57 31h2c0-2.206 1.794-4 4-4v-2c-2.206 0-4-1.794-4-4h-2c0 2.206-1.794 4-4 4v2c2.206 0 4 1.794 4 4zm1-6.687c.444.668 1.019 1.242 1.687 1.687-.668.444-1.242 1.019-1.687 1.687-.444-.668-1.019-1.242-1.687-1.687.668-.444 1.243-1.019 1.687-1.687z"/><path d="m41 13h2c0-2.206 1.794-4 4-4v-2c-2.206 0-4-1.794-4-4h-2c0 2.206-1.794 4-4 4v2c2.206 0 4 1.794 4 4zm1-6.687c.444.668 1.019 1.243 1.687 1.687-.668.444-1.243 1.019-1.687 1.687-.444-.668-1.019-1.243-1.687-1.687.668-.444 1.243-1.019 1.687-1.687z"/></svg>